<svg xmlns="http://www.w3.org/2000/svg" viewBox="0 0 375 111" fill="none">
  <!-- Wave Icon — 3 curved strokes -->
  <g transform="translate(20, 8)">
    <!-- Left stroke (darkest) -->
    <path d="M25 0C25 0 8 18 8 35C8 52 25 55 25 72C25 89 8 95 8 95" 
          stroke="#ffffff" stroke-width="9" stroke-linecap="round" fill="none" opacity="0.6"/>
    <!-- Middle stroke -->
    <path d="M38 8C38 8 21 26 21 43C21 60 38 63 38 80C38 97 21 103 21 103" 
          stroke="#ffffff" stroke-width="9" stroke-linecap="round" fill="none" opacity="0.8"/>
    <!-- Right stroke (lightest/brightest) -->
    <path d="M51 16C51 16 34 34 34 51C34 68 51 71 51 88C51 97 40 103 34 103" 
          stroke="#ffffff" stroke-width="9" stroke-linecap="round" fill="none"/>
  </g>
  
  <!-- "ensuredit" text paths from original -->
  <g fill="#ffffff" fill-opacity="1"><g transform="translate(84.375, 72.156473)"><g><path d="M 38.59375 -17.203125 C 38.59375 -17.078125 38.53125 -16.175781 38.40625 -14.5 L 12.171875 -14.5 C 12.648438 -12.351562 13.769531 -10.65625 15.53125 -9.40625 C 17.289062 -8.164062 19.484375 -7.546875 22.109375 -7.546875 C 23.910156 -7.546875 25.507812 -7.8125 26.90625 -8.34375 C 28.300781 -8.882812 29.597656 -9.734375 30.796875 -10.890625 L 36.15625 -5.09375 C 32.882812 -1.351562 28.113281 0.515625 21.84375 0.515625 C 17.9375 0.515625 14.476562 -0.242188 11.46875 -1.765625 C 8.457031 -3.296875 6.132812 -5.410156 4.5 -8.109375 C 2.875 -10.816406 2.0625 -13.890625 2.0625 -17.328125 C 2.0625 -20.722656 2.863281 -23.785156 4.46875 -26.515625 C 6.082031 -29.242188 8.296875 -31.367188 11.109375 -32.890625 C 13.929688 -34.421875 17.082031 -35.1875 20.5625 -35.1875 C 23.945312 -35.1875 27.015625 -34.453125 29.765625 -32.984375 C 32.515625 -31.523438 34.671875 -29.429688 36.234375 -26.703125 C 37.804688 -23.984375 38.59375 -20.816406 38.59375 -17.203125 Z M 20.625 -27.578125 C 18.34375 -27.578125 16.425781 -26.929688 14.875 -25.640625 C 13.332031 -24.359375 12.390625 -22.597656 12.046875 -20.359375 L 29.125 -20.359375 C 28.78125 -22.554688 27.832031 -24.304688 26.28125 -25.609375 C 24.738281 -26.921875 22.851562 -27.578125 20.625 -27.578125 Z M 20.625 -27.578125 "/></g></g>
  <g fill="#ffffff" fill-opacity="1"><g transform="translate(118.71549, 72.156473)"><g><path d="M 25.703125 -35.1875 C 30.003906 -35.1875 33.472656 -33.894531 36.109375 -31.3125 C 38.753906 -28.738281 40.078125 -24.914062 40.078125 -19.84375 L 40.078125 0 L 30.03125 0 L 30.03125 -18.296875 C 30.03125 -21.046875 29.425781 -23.097656 28.21875 -24.453125 C 27.019531 -25.804688 25.28125 -26.484375 23 -26.484375 C 20.46875 -26.484375 18.445312 -25.695312 16.9375 -24.125 C 15.4375 -22.5625 14.6875 -20.234375 14.6875 -17.140625 L 14.6875 0 L 4.640625 0 L 4.640625 -34.671875 L 14.234375 -34.671875 L 14.234375 -30.609375 C 15.566406 -32.066406 17.222656 -33.191406 19.203125 -33.984375 C 21.179688 -34.785156 23.347656 -35.1875 25.703125 -35.1875 Z M 25.703125 -35.1875 "/></g></g>
  <g fill="#ffffff" fill-opacity="1"><g transform="translate(156.92177, 72.156473)"><g><path d="M 16.296875 0.515625 C 13.421875 0.515625 10.609375 0.160156 7.859375 -0.546875 C 5.109375 -1.253906 2.914062 -2.144531 1.28125 -3.21875 L 4.640625 -10.4375 C 6.179688 -9.445312 8.046875 -8.640625 10.234375 -8.015625 C 12.429688 -7.398438 14.582031 -7.09375 16.6875 -7.09375 C 20.9375 -7.09375 23.0625 -8.144531 23.0625 -10.25 C 23.0625 -11.238281 22.484375 -11.945312 21.328125 -12.375 C 20.171875 -12.800781 18.390625 -13.164062 15.984375 -13.46875 C 13.148438 -13.894531 10.804688 -14.382812 8.953125 -14.9375 C 7.109375 -15.5 5.507812 -16.488281 4.15625 -17.90625 C 2.800781 -19.332031 2.125 -21.351562 2.125 -23.96875 C 2.125 -26.15625 2.753906 -28.097656 4.015625 -29.796875 C 5.285156 -31.492188 7.132812 -32.816406 9.5625 -33.765625 C 11.988281 -34.710938 14.859375 -35.1875 18.171875 -35.1875 C 20.617188 -35.1875 23.054688 -34.914062 25.484375 -34.375 C 27.910156 -33.84375 29.921875 -33.101562 31.515625 -32.15625 L 28.15625 -25 C 25.101562 -26.71875 21.773438 -27.578125 18.171875 -27.578125 C 16.023438 -27.578125 14.414062 -27.273438 13.34375 -26.671875 C 12.269531 -26.078125 11.734375 -25.304688 11.734375 -24.359375 C 11.734375 -23.285156 12.3125 -22.53125 13.46875 -22.09375 C 14.625 -21.664062 16.472656 -21.257812 19.015625 -20.875 C 21.847656 -20.40625 24.164062 -19.898438 25.96875 -19.359375 C 27.769531 -18.828125 29.335938 -17.851562 30.671875 -16.4375 C 32.003906 -15.019531 32.671875 -13.039062 32.671875 -10.5 C 32.671875 -8.351562 32.023438 -6.441406 30.734375 -4.765625 C 29.441406 -3.085938 27.5625 -1.785156 25.09375 -0.859375 C 22.625 0.0546875 19.691406 0.515625 16.296875 0.515625 Z M 16.296875 0.515625 "/></g></g>
  <g fill="#ffffff" fill-opacity="1"><g transform="translate(184.819294, 72.156473)"><g><path d="M 39.5625 -34.671875 L 39.5625 0 L 30.03125 0 L 30.03125 -4.125 C 28.695312 -2.625 27.101562 -1.472656 25.25 -0.671875 C 23.40625 0.117188 21.410156 0.515625 19.265625 0.515625 C 14.710938 0.515625 11.101562 -0.789062 8.4375 -3.40625 C 5.78125 -6.03125 4.453125 -9.921875 4.453125 -15.078125 L 4.453125 -34.671875 L 14.5 -34.671875 L 14.5 -16.5625 C 14.5 -10.976562 16.835938 -8.1875 21.515625 -8.1875 C 23.921875 -8.1875 25.851562 -8.96875 27.3125 -10.53125 C 28.78125 -12.101562 29.515625 -14.4375 29.515625 -17.53125 L 29.515625 -34.671875 Z M 39.5625 -34.671875 "/></g></g>
  <g fill="#ffffff" fill-opacity="1"><g transform="translate(222.767853, 72.156473)"><g><path d="M 14.234375 -30.09375 C 15.441406 -31.769531 17.066406 -33.035156 19.109375 -33.890625 C 21.148438 -34.753906 23.5 -35.1875 26.15625 -35.1875 L 26.15625 -25.90625 C 25.039062 -25.988281 24.289062 -26.03125 23.90625 -26.03125 C 21.03125 -26.03125 18.773438 -25.222656 17.140625 -23.609375 C 15.503906 -22.003906 14.6875 -19.585938 14.6875 -16.359375 L 14.6875 0 L 4.640625 0 L 4.640625 -34.671875 L 14.234375 -34.671875 Z M 14.234375 -30.09375 "/></g></g>
  <g fill="#ffffff" fill-opacity="1"><g transform="translate(244.222411, 72.156473)"><g><path d="M 38.59375 -17.203125 C 38.59375 -17.078125 38.53125 -16.175781 38.40625 -14.5 L 12.171875 -14.5 C 12.648438 -12.351562 13.769531 -10.65625 15.53125 -9.40625 C 17.289062 -8.164062 19.484375 -7.546875 22.109375 -7.546875 C 23.910156 -7.546875 25.507812 -7.8125 26.90625 -8.34375 C 28.300781 -8.882812 29.597656 -9.734375 30.796875 -10.890625 L 36.15625 -5.09375 C 32.882812 -1.351562 28.113281 0.515625 21.84375 0.515625 C 17.9375 0.515625 14.476562 -0.242188 11.46875 -1.765625 C 8.457031 -3.296875 6.132812 -5.410156 4.5 -8.109375 C 2.875 -10.816406 2.0625 -13.890625 2.0625 -17.328125 C 2.0625 -20.722656 2.863281 -23.785156 4.46875 -26.515625 C 6.082031 -29.242188 8.296875 -31.367188 11.109375 -32.890625 C 13.929688 -34.421875 17.082031 -35.1875 20.5625 -35.1875 C 23.945312 -35.1875 27.015625 -34.453125 29.765625 -32.984375 C 32.515625 -31.523438 34.671875 -29.429688 36.234375 -26.703125 C 37.804688 -23.984375 38.59375 -20.816406 38.59375 -17.203125 Z M 20.625 -27.578125 C 18.34375 -27.578125 16.425781 -26.929688 14.875 -25.640625 C 13.332031 -24.359375 12.390625 -22.597656 12.046875 -20.359375 L 29.125 -20.359375 C 28.78125 -22.554688 27.832031 -24.304688 26.28125 -25.609375 C 24.738281 -26.921875 22.851562 -27.578125 20.625 -27.578125 Z M 20.625 -27.578125 "/></g></g>
  <g fill="#ffffff" fill-opacity="1"><g transform="translate(278.562911, 72.156473)"><g><path d="M 39.953125 -47.8125 L 39.953125 0 L 30.34375 0 L 30.34375 -4 C 27.851562 -0.988281 24.25 0.515625 19.53125 0.515625 C 16.257812 0.515625 13.300781 -0.210938 10.65625 -1.671875 C 8.019531 -3.128906 5.945312 -5.210938 4.4375 -7.921875 C 2.9375 -10.628906 2.1875 -13.765625 2.1875 -17.328125 C 2.1875 -20.898438 2.9375 -24.035156 4.4375 -26.734375 C 5.945312 -29.441406 8.019531 -31.523438 10.65625 -32.984375 C 13.300781 -34.453125 16.257812 -35.1875 19.53125 -35.1875 C 23.945312 -35.1875 27.40625 -33.789062 29.90625 -31 L 29.90625 -47.8125 Z M 21.265625 -7.734375 C 23.796875 -7.734375 25.898438 -8.601562 27.578125 -10.34375 C 29.253906 -12.082031 30.09375 -14.410156 30.09375 -17.328125 C 30.09375 -20.253906 29.253906 -22.585938 27.578125 -24.328125 C 25.898438 -26.066406 23.796875 -26.9375 21.265625 -26.9375 C 18.679688 -26.9375 16.550781 -26.066406 14.875 -24.328125 C 13.207031 -22.585938 12.375 -20.253906 12.375 -17.328125 C 12.375 -14.410156 13.207031 -12.082031 14.875 -10.34375 C 16.550781 -8.601562 18.679688 -7.734375 21.265625 -7.734375 Z M 21.265625 -7.734375 "/></g></g>
  <g fill="#ffffff" fill-opacity="1"><g transform="translate(316.833599, 72.156473)"><g><path d="M 4.640625 -34.671875 L 14.6875 -34.671875 L 14.6875 0 L 4.640625 0 Z M 9.671875 -39.5 C 7.816406 -39.5 6.3125 -40.035156 5.15625 -41.109375 C 4 -42.179688 3.421875 -43.515625 3.421875 -45.109375 C 3.421875 -46.691406 4 -48.019531 5.15625 -49.09375 C 6.3125 -50.175781 7.816406 -50.71875 9.671875 -50.71875 C 11.515625 -50.71875 13.015625 -50.203125 14.171875 -49.171875 C 15.335938 -48.140625 15.921875 -46.847656 15.921875 -45.296875 C 15.921875 -43.617188 15.335938 -42.234375 14.171875 -41.140625 C 13.015625 -40.046875 11.515625 -39.5 9.671875 -39.5 Z M 9.671875 -39.5 "/></g></g>
  <g fill="#ffffff" fill-opacity="1"><g transform="translate(329.912318, 72.156473)"><g><path d="M 27 -1.671875 C 26.007812 -0.941406 24.796875 -0.394531 23.359375 -0.03125 C 21.921875 0.332031 20.40625 0.515625 18.8125 0.515625 C 14.6875 0.515625 11.492188 -0.535156 9.234375 -2.640625 C 6.984375 -4.742188 5.859375 -7.835938 5.859375 -11.921875 L 5.859375 -26.15625 L 0.515625 -26.15625 L 0.515625 -33.890625 L 5.859375 -33.890625 L 5.859375 -42.328125 L 15.921875 -42.328125 L 15.921875 -33.890625 L 24.546875 -33.890625 L 24.546875 -26.15625 L 15.921875 -26.15625 L 15.921875 -12.046875 C 15.921875 -10.585938 16.296875 -9.457031 17.046875 -8.65625 C 17.796875 -7.863281 18.859375 -7.46875 20.234375 -7.46875 C 21.828125 -7.46875 23.179688 -7.898438 24.296875 -8.765625 Z M 27 -1.671875 "/></g></g>
</svg>